<?xml version="1.0" standalone="no"?>
<!DOCTYPE svg PUBLIC "-//W3C//DTD SVG 1.1//EN" "http://www.w3.org/Graphics/SVG/1.1/DTD/svg11.dtd" >
<svg xmlns="http://www.w3.org/2000/svg" xmlns:xlink="http://www.w3.org/1999/xlink" version="1.1">
<metadata></metadata>
<defs>
<font id="euro_plateregular" horiz-adv-x="1060" >
<font-face units-per-em="2048" ascent="1638" descent="-410" />
<missing-glyph horiz-adv-x="299" />
<glyph horiz-adv-x="0" />
<glyph unicode="&#xd;" horiz-adv-x="508" />
<glyph unicode=" "  horiz-adv-x="299" />
<glyph unicode="&#x09;" horiz-adv-x="299" />
<glyph unicode="&#xa0;" horiz-adv-x="299" />
<glyph unicode="!" horiz-adv-x="963" d="M175 -82v1665h743v-1665h-743zM262 1066l22 -20l-9 -28l26 17l22 -17l-9 28l25 20h-30l-8 28l-12 -28h-27zM292 941l25 -17l-8 -28l25 17l22 -17l-8 28l25 17h-31l-8 27l-11 -27h-31zM292 1188l25 -17l-8 -27l25 16l22 -16l-8 27l25 17h-31l-8 28l-11 -28h-31zM384 851 l25 -19l-11 -28l25 17l25 -17l-8 28l22 19h-31l-8 28l-8 -28h-31zM384 1280l25 -17l-11 -30l25 19l25 -19l-8 30l22 17h-31l-8 28l-8 -28h-31zM440 198h111q39 0 64 16q26 14 39 39q12 17 17 34q2 14 2 75q0 58 -2 69q-6 28 -14 42q-36 56 -100 56h-117v-331zM490 245v236 h61q34 0 58 -27q12 -24 12 -31q2 -11 2 -61q0 -53 -2 -61q0 -16 -9 -28q-20 -28 -61 -28h-61zM509 818l22 -19l-8 -28l25 16l22 -16l-8 28l25 19h-30l-9 28l-11 -28h-28zM509 1313l22 -19l-8 -28l25 17l22 -17l-8 28l25 19h-30l-9 28l-11 -28h-28zM632 851l25 -19l-11 -28 l25 17l25 -17l-9 28l23 19h-28l-11 28l-9 -28h-30zM632 1280l25 -17l-11 -30l25 19l25 -19l-9 30l23 17h-28l-11 28l-9 -28h-30zM723 941l23 -17l-9 -28l25 17l25 -17l-11 28l25 17h-30l-9 27l-11 -27h-28zM723 1188l23 -17l-9 -27l25 16l25 -16l-11 27l25 17h-30l-9 28 l-11 -28h-28zM757 1066l22 -20l-8 -28l25 17l22 -17l-8 28l25 20h-31l-8 28l-11 -28h-28z" />
<glyph unicode="&#x22;" horiz-adv-x="1981" d="M106 648q2 27 3.5 54.5t4.5 54.5q6 72 8 108h28h25q-2 -27 -3 -54.5t-5 -56.5q12 18 24.5 35.5t25.5 36.5h33h34q-35 -46 -64 -80q14 -26 27 -49.5t28 -48.5h-33.5h-32.5q-11 21 -21.5 43.5t-20.5 43.5q-6 -56 -6 -87h-28h-27zM270 735q4 43 28 69q23 25 64 25 q36 0 58 -22q14 -18 14 -58q-1 -2 -5 -26h-52.5h-50.5q-5 -36 39 -36q30 0 52 11q0 -27 3 -41q-24 -11 -67 -11q-88 0 -83 89zM328 760h25h28q4 30 -22 30q-14 0 -22 -8q-9 -9 -9 -22zM348 462l75 3l22 69l22 -69l76 -3l-62 -42l25 -72l-61 44l-61 -44l22 72zM348 1082h75 l22 70l22 -70h76l-62 -44l25 -72l-61 44l-61 -44l22 72zM442 648q4 44 7 89t7 89h25h25q0 -10 -1 -17t-1 -10q22 30 61 30q51 0 47 -55q-3 -32 -6 -63.5t-5 -62.5h-27h-26q2 29 4 56.5t5 57.5q0 23 -14 23q-18 0 -25 -17q-14 -13 -14 -33q-6 -56 -9 -87h-25h-28zM573 237h75 l23 72l25 -72h75l-61 -45l22 -72l-61 44l-59 -44l22 72zM573 1308h75l23 72l25 -72h75l-61 -42l22 -72l-61 44l-59 -44l22 72zM629 648q3 44 6 89t8 89h24.5h25.5q0 -17 -6 -27q26 30 62 30q53 0 50 -55q-5 -32 -7.5 -63.5t-4.5 -62.5h-26h-26q1 29 3 56.5t5 57.5 q0 23 -14 23q-15 0 -28 -17q-11 -18 -11 -33q-3 -21 -4.5 -42.5t-3.5 -44.5h-27h-26zM640 877q12 30 23.5 59.5t23.5 59.5q10 31 20.5 60.5t21.5 59.5h31.5h32.5q10 -30 20 -59.5t19 -60.5q8 -30 16.5 -59.5t19.5 -59.5h-32h-29q-4 9 -11 44h-42h-42q-4 -11 -8.5 -21.5 t-7.5 -22.5h-29.5h-26.5zM729 966h26.5h29.5q-7 20 -13 42.5t-12 43.5q-23 -58 -31 -86zM810 648q0 28 3 39q44 62 69 89h-14.5h-18.5h-14.5h-13.5q3 17 3 50h62h66q-3 -10 -3.5 -20t-2.5 -19q-15 -23 -32 -44.5t-32 -44.5h10h23h12.5h13.5q0 -12 -1.5 -25t-1.5 -25h-65h-63 zM874 929q0 31 1.5 62.5t3.5 63.5h26h27q0 -30 -2 -58t-3 -56q0 -23 16 -23q12 0 25 17q11 9 11 33q3 28 3 87h28h28q-3 -45 -5 -90t-3 -88h-26h-25q0 9 1.5 16t1.5 11q-23 -30 -61 -30q-52 0 -47 55zM882 153h75l25 72l23 -72h75l-62 -44l23 -70l-59 44l-61 -44l22 70z M882 1391h75l25 73l23 -73h75l-62 -44l23 -70l-59 42l-61 -42l22 70zM954 735q4 41 28 69q25 25 64 25q38 0 56 -22q18 -24 14 -58q0 -14 -3 -26h-52h-54q0 -36 42 -36q29 0 53 11q0 -27 3 -41q-29 -11 -67 -11q-92 0 -84 89zM996 378q0 9 11 23q13 11 23 11q13 0 22 -11 q11 -9 11 -23t-11 -22q-9 -11 -22 -11q-15 0 -23 11q-11 8 -11 22zM1010 760h28h28q0 30 -25 30q-11 0 -20 -8q-5 -6 -11 -22zM1043 1013q0 10 1.5 20.5t1.5 21.5h12.5h12.5q0 12 1.5 24.5t1.5 25.5q12 3 26 7.5t27 8.5v-33.5v-32.5h17.5h18.5v-21.5v-20.5h-20h-19 q0 -19 -1.5 -36t-1.5 -34q0 -16 3 -19q6 -6 14 -6q14 0 20 3q0 -28 -3 -42q-35 -5 -39 -5q-31 0 -42 11q-8 12 -8 44q2 21 2.5 42t2.5 42h-14h-14zM1082 351q0 41 1.5 84t4.5 85h26h27q-3 -42 -4.5 -85t-1.5 -84h-26.5h-26.5zM1082 573q0 15 12 22q6 12 22 12q15 0 22 -12 q8 -7 8 -22q0 -14 -8 -22q-15 -11 -22 -11q-11 0 -25 11q-9 9 -9 22zM1127 648q4 44 6.5 89t7.5 89h26h27q-3 -44 -7 -89t-7 -89h-27h-26zM1160 351q0 41 0.5 84t5.5 85h22.5h24.5q0 -9 -1.5 -15t-1.5 -10q21 31 59 31q51 0 47 -56q-3 -30 -3 -60v-59h-25h-27q0 27 1 54 t1 54q0 22 -14 22q-11 0 -25 -14q-11 -16 -11 -33q-3 -28 -3 -83h-25h-25zM1166 963q0 39 28 67q27 27 69 27q40 0 62 -22q19 -21 19 -67q-5 -45 -31 -69q-28 -25 -69 -25q-83 0 -78 89zM1194 237h72l25 72l22 -72h76l-62 -45l25 -72l-61 44l-61 -44l22 72zM1194 1308h72 l25 72l22 -72h76l-62 -42l25 -72l-61 44l-61 -44l22 72zM1202 732q4 42 28 69q26 28 75 28q20 0 33 -5q-4 -10 -11 -45q-8 3 -28 3q-36 0 -38 -45q-5 -44 33 -44q1 0 31 5v-22v-22q-19 -8 -48 -8q-80 0 -75 86zM1222 968q0 -47 30 -47q14 0 25 11q7 11 11 34q0 44 -30 44 q-13 0 -25 -8q-11 -17 -11 -34zM1322 481q3 14 3 39h13.5h13.5q0 17 3.5 41.5t16.5 36.5q17 17 55 17q9 0 15.5 -1.5t12.5 -1.5q-1 -6 -8 -44q-15 5 -17 5q-25 0 -25 -39q-3 -4 -2 -7t-1 -7h19h18q0 -25 -3 -39h-17h-17q-2 -33 -2 -65v-65h-28h-25v65t3 65h-13.5h-14.5z M1338 648q4 33 6.5 65.5t5.5 65.5q2 48 8 128h27.5h28.5q-3 -17 -3.5 -35t-2.5 -34q0 -13 -6 -37q19 28 59 28q51 0 47 -55q-3 -32 -4.5 -63.5t-3.5 -62.5h-28h-28q2 29 4 56.5t5 57.5q3 23 -14 23q-13 0 -25 -17q-11 -10 -14 -33q-3 -21 -3.5 -42.5t-2.5 -44.5h-28h-28z M1419 1082h75l23 70l25 -70h75l-62 -44l23 -72l-61 44l-59 -44l22 72zM1430 431q0 39 28 67t67 28t61 -22q21 -27 17 -64q0 -41 -25 -67q-30 -25 -67 -25q-81 0 -81 83zM1486 437q0 -45 31 -45q13 0 22 11q11 19 11 34q0 44 -31 44q-11 0 -22 -11t-11 -33zM1522 735 q4 43 28 69q25 25 64 25q37 0 56 -22q17 -23 13 -58q0 -14 -2 -26h-53h-53q0 -36 42 -36q29 0 53 11v-20.5v-20.5q-25 -11 -64 -11q-92 0 -84 89zM1578 760h27h28q0 30 -25 30q-11 0 -19 -8q-5 -5 -11 -22zM1695 648q1 44 5 89t9 89h24.5h25.5q0 -17 -6 -27q26 30 61 30 q54 0 50 -55q-4 -32 -6.5 -63.5t-4.5 -62.5h-26.5h-26.5q2 29 4 56.5t5 57.5q0 23 -14 23q-16 0 -28 -17q-11 -15 -11 -33q-6 -56 -9 -87h-26h-26z" />
<glyph unicode="*" horiz-adv-x="963" d="M262 1066l22 -20l-9 -28l26 17l22 -17l-9 28l25 20h-30l-8 28l-12 -28h-27zM292 941l25 -17l-8 -28l25 17l22 -17l-8 28l25 17h-31l-8 27l-11 -27h-31zM292 1188l25 -17l-8 -27l25 16l22 -16l-8 27l25 17h-31l-8 28l-11 -28h-31zM384 851l25 -19l-11 -28l25 17l25 -17 l-8 28l22 19h-31l-8 28l-8 -28h-31zM384 1280l25 -17l-11 -30l25 19l25 -19l-8 30l22 17h-31l-8 28l-8 -28h-31zM509 818l22 -19l-8 -28l25 16l22 -16l-8 28l25 19h-30l-9 28l-11 -28h-28zM509 1313l22 -19l-8 -28l25 17l22 -17l-8 28l25 19h-30l-9 28l-11 -28h-28zM632 851 l25 -19l-11 -28l25 17l25 -17l-9 28l23 19h-28l-11 28l-9 -28h-30zM632 1280l25 -17l-11 -30l25 19l25 -19l-9 30l23 17h-28l-11 28l-9 -28h-30zM723 941l23 -17l-9 -28l25 17l25 -17l-11 28l25 17h-30l-9 27l-11 -27h-28zM723 1188l23 -17l-9 -27l25 16l25 -16l-11 27 l25 17h-30l-9 28l-11 -28h-28zM757 1066l22 -20l-8 -28l25 17l22 -17l-8 28l25 20h-31l-8 28l-11 -28h-28z" />
<glyph unicode="+" horiz-adv-x="1557" d="M50 774h75l22 69l23 -69h75l-59 -45l23 -72l-62 44l-61 -44l23 72zM131 462l75 3l25 69l22 -69l75 -3l-61 -42l22 -72l-58 44l-61 -44l22 72zM131 1082h75l25 70l22 -70h75l-61 -44l22 -72l-58 44l-61 -44l22 72zM359 237h75l22 72l25 -72h73l-59 -45l23 -72l-62 44 l-61 -44l25 72zM359 1308h75l22 72l25 -72h73l-59 -42l23 -72l-62 44l-61 -44l25 72zM548 403v693h242q140 0 212 -117q27 -47 30 -83q6 -25 6 -145q0 -115 -8 -156q-5 -39 -31 -75q-32 -52 -84 -83q-56 -34 -130 -34h-237zM654 504h125q87 0 128 61q19 29 22 56q6 38 6 125 q0 82 -6 128q-3 29 -27 67q-43 55 -123 55h-125v-492zM668 153h75l22 72l25 -72h75l-61 -44l22 -70l-61 44l-58 -44l22 70zM668 1391h75l22 73l25 -73h75l-61 -44l22 -70l-61 42l-58 -42l22 70zM977 237h75l25 72l22 -72h75l-61 -45l22 -72l-58 44l-61 -44l22 72zM977 1308 h75l25 72l22 -72h75l-61 -42l22 -72l-58 44l-61 -44l22 72zM1205 462l75 3l22 69l23 -69l75 -3l-59 -42l22 -72l-61 44l-61 -44l25 72zM1205 1082h75l22 70l23 -70h75l-59 -44l22 -72l-61 44l-61 -44l25 72zM1288 774h73l25 69l22 -69h75l-61 -45l25 -72l-61 44l-61 -44 l22 72z" />
<glyph unicode="-" horiz-adv-x="1095" d="M50 735v120q0 39 42 39h907q14 0 31 -11q13 -15 13 -28v-123q0 -14 -13 -28q-14 -11 -28 -11h-409t-45.5 0t-46 0h-409.5q-42 0 -42 42z" />
<glyph unicode="0" horiz-adv-x="1027" d="M114 256v979q0 101 70 170q71 73 169 73h384q71 0 137 -39q58 -40 89 -109v-0.5t3 -2.5v-5v-3q0 -19 -12 -25l-158 -148q-15 -13 -28 -13q-28 0 -28 33v86q0 15 -14 28q-11 11 -28 11h-311q-39 0 -39 -39v-963q0 -16 11 -27q10 -12 28 -12h320q39 0 39 39v696 q0 2 1.5 5.5t1.5 8.5q0 2 13 17l204 181q5 5 11 5q2 0 2 -5v-941q0 -100 -69 -170q-69 -69 -173 -69h-384q-100 0 -169 69q-70 70 -70 170z" />
<glyph unicode="1" horiz-adv-x="1027" d="M134 56v153q0 41 39 41h320q17 0 28 12q11 11 11 27v880q0 5 -3 8t-11 3h-9.5h-7.5q1 1 -14 -11l-130 -120q-2 -3 -9 -8q-12 -13 -20 -19.5t-10 -8.5q-6 -3 -28 -3h-117q-16 0 -28 11q-11 12 -11 28v120q0 16 14 28q19 12 42 19q34 12 47 25l248 225q10 12 30 12h212 q39 0 39 -42v-1147q0 -39 41 -39h154q38 0 38 -41v-153q0 -39 -38 -39h-788q-39 0 -39 39z" />
<glyph unicode="2" horiz-adv-x="1027" d="M114 66v194q0 30 14 48q8 17 33 47q46 49 159 159q48 48 89.5 88t74.5 76q61 64 128 145q61 79 98 153q36 74 36 150q0 73 -48 100q-45 28 -122 28q-78 0 -122 -28q-48 -24 -48 -100q0 -25 -8 -42q-13 -17 -36 -17h-151q-38 0 -38 42v56q0 82 33 144q27 60 89 103 q56 39 128 56q67 20 153 20q82 0 150 -20q66 -15 131 -56q54 -39 89 -103q33 -62 33 -144q0 -121 -30 -212q-30 -96 -81 -175q-43 -69 -111 -142q-61 -68 -162 -161q-46 -45 -79.5 -79.5t-56.5 -57.5q-33 -38 -33 -61q0 -17 16 -17h499q38 0 38 -41v-153q0 -39 -38 -39h-788 q-39 0 -39 39z" />
<glyph unicode="3" horiz-adv-x="1027" d="M124 405q0 39 39 39h156q39 0 39 -45q0 -93 44 -125q47 -34 139 -34q106 0 159 53q56 48 56 151q0 89 -3 116q-11 50 -22 67q-15 26 -50 39q-29 11 -95 11h-131q-13 0 -28 14q-11 12 -11 28v95q0 16 3 27q8 16 20 31l303 320q14 14 14 50q0 17 -11 28q-13 11 -28 11h-496 q-38 0 -38 42v103q0 20 11 30q10 12 27 12h730q38 0 38 -42v-237q0 -16 -2 -25q0 -9 -11 -22l-268 -295q-5 -15 -5 -14q0 -16 19 -19q84 -12 151 -37q50 -23 78 -64q24 -38 33 -91q5 -65 5 -156q0 -233 -108 -345q-106 -114 -340 -114q-208 0 -314 97q-103 98 -103 301z" />
<glyph unicode="4" horiz-adv-x="1027" d="M114 320v178q0 31 6 56q2 35 22 69l490 813q11 24 30 33q16 9 25 9h126q52 0 52 -42q0 -17 -8 -31l-504 -843q-5 -20 -5 -25q0 -33 39 -33h214q18 0 28 11q11 17 11 28v211q0 18 11 31q17 11 28 11h153q42 0 42 -42v-211q0 -17 11 -28q9 -11 30 -11h26q9 0 27 -11 q11 -11 11 -28v-145q0 -42 -38 -42h-26q-41 0 -41 -41v-181q0 -39 -42 -39h-153q-19 0 -28 11q-11 11 -11 28v181q0 12 -11 30q-11 11 -28 11h-448q-13 0 -28 14q-11 12 -11 28z" />
<glyph unicode="5" horiz-adv-x="1027" d="M124 346q0 39 39 39h153q17 0 28 -11q14 -14 14 -28q0 -71 36 -86q31 -20 128 -20q137 0 184 59q50 59 50 189q0 84 -6 114q-5 47 -25 84q-21 40 -58 61q-33 22 -100 22q-35 0 -62 -8q-34 -13 -55 -25q-34 -15 -48 -23q-35 -5 -44 -5h-195q-39 0 -39 42v676q0 42 39 42 h788q38 0 38 -42v-103q0 -42 -38 -42h-554q-39 0 -39 -39v-331q0 -14 19 -14q20 0 62 25q43 24 91 42q54 14 114 14q68 0 115 -11q47 -8 108 -56q49 -43 89 -147q33 -105 33 -276q0 -249 -105 -362q-105 -119 -365 -119q-126 0 -183 11q-74 12 -117 44q-45 30 -73 103 q-22 61 -22 181z" />
<glyph unicode="6" horiz-adv-x="1027" d="M114 501q0 158 53 317q49 148 128 298q73 125 131 211q58 85 78 109q21 25 33 33q16 9 22 9h134q53 0 53 -42q0 -15 -9 -31q-63 -100 -109.5 -179.5t-82.5 -137.5q-33 -59 -50.5 -92t-21.5 -39v-3.5v-1.5v-3.5v-2.5q0 -8 14 -8q10 2 26.5 5.5t40.5 8.5q48 8 97 8 q96 0 164 -36q63 -31 103 -98q34 -61 48 -141q13 -67 13 -184q0 -93 -27 -175q-32 -87 -84 -156q-52 -70 -136 -112q-81 -41 -181 -41q-105 0 -178 39q-86 38 -139 108q-61 70 -89 156q-31 78 -31 181zM348 501q0 -105 47 -178q49 -73 153 -73q106 0 150 73q48 66 48 178 q0 60 -11 114q-16 66 -37 106q-14 22 -61 30q-45 9 -89 9q-46 0 -92 -9q-49 -8 -61 -30q-27 -58 -36 -106q-11 -54 -11 -114z" />
<glyph unicode="7" horiz-adv-x="1027" d="M124 1100v326q0 15 11 28q15 14 28 14h782q15 0 31 -14q13 -11 13 -28v-195q0 -46 -25 -103q-15 -30 -33 -63.5t-39 -75.5q-4 -5 -7 -10.5t-7 -9.5l-289 -534q-36 -64 -36 -131v-258q0 -12 -12 -28q-10 -11 -27 -11h-176q-39 0 -39 39v258q0 56 3 76q0 30 17 55l378 701 v3q11 17 11 53q0 42 -41 42h-270q-39 0 -39 -42v-92q0 -41 -42 -41h-153q-39 0 -39 41z" />
<glyph unicode="8" horiz-adv-x="1027" d="M114 490q0 70 11 117q17 59 31 80q15 32 36 53q10 10 22.5 20.5t24.5 21.5q39 30 39 53q0 20 -28 53q-38 40 -58 86q-19 42 -19 136q0 202 86 284q87 84 286 84t290 -81q86 -79 86 -276q0 -90 -19 -133q-21 -46 -56 -86q-31 -39 -31 -59q0 -21 39 -53q12 -12 24.5 -23 t23.5 -21q25 -33 36 -56q15 -26 30 -83q11 -42 11 -117q0 -89 -11 -151q-12 -73 -55 -150q-43 -76 -134 -125q-88 -47 -234 -47q-142 0 -231 47q-91 48 -133 125q-43 76 -56 150q-11 70 -11 151zM348 490q0 -116 47 -178q45 -62 150 -62q108 0 153 62q48 62 48 178 q0 114 -48 183q-49 70 -153 70q-105 0 -150 -70q-47 -63 -47 -183zM406 1110q0 -97 31 -136q28 -47 108 -47q82 0 112 50q30 45 30 144q0 92 -30 131q-28 39 -112 39q-81 0 -108 -44q-31 -40 -31 -137z" />
<glyph unicode="9" horiz-adv-x="1027" d="M114 991q0 229 103 356q106 131 328 131q233 0 337 -120q97 -118 97 -367q0 -128 -19 -223q-26 -107 -78 -186l-351 -526q-16 -22 -25 -28q-10 -11 -27 -11h-190q-52 0 -52 36q0 26 19 50l409 590q39 55 61 136q20 80 20 162q0 130 -39 189q-43 64 -162 64 q-108 0 -153 -70q-44 -69 -44 -183q0 -72 17 -114q18 -46 50 -64q34 -22 69 -26q44 -8 98 -8q16 0 16 -14q0 -5 -3 -5q-3 -13 -16 -39q-27 -42 -42 -62q-25 -37 -61 -61q-33 -28 -75 -28q-82 0 -142 39q-57 36 -89 98q-33 63 -45 133q-11 66 -11 151z" />
<glyph unicode=":" horiz-adv-x="1152" d="M154 334q0 181 127.5 309t309.5 128q179 0 306.5 -128t127.5 -309q0 -180 -127.5 -308t-306.5 -128q-182 0 -309.5 128t-127.5 308zM177 334q0 -171 120 -292.5t294 -121.5q171 0 291.5 121.5t120.5 292.5t-120.5 293t-291.5 122q-174 0 -294 -122t-120 -293zM254 1247 q0 137 98.5 235.5t238.5 98.5q138 0 236 -98.5t98 -235.5q0 -138 -98 -236t-236 -98q-140 0 -238.5 98t-98.5 236zM277 1247q0 -130 92.5 -222.5t221.5 -92.5q127 0 219.5 92.5t92.5 222.5q0 129 -92.5 220t-219.5 91q-129 0 -221.5 -91t-92.5 -220z" />
<glyph unicode="?" horiz-adv-x="2407" d="M97 751q0 294 324.5 503.5t780.5 209.5t780 -209.5t324 -503.5t-324 -503t-780 -209t-780.5 209t-324.5 503zM150 751q0 -273 308.5 -466t743.5 -193q434 0 743 193t309 466q0 271 -309 465.5t-743 194.5q-435 0 -743.5 -194.5t-308.5 -465.5zM896 262v979h342 q201 0 298 -167q36 -61 44 -117q9 -54 9 -206q0 -84 -4 -138.5t-8 -83.5q-14 -60 -44 -106q-42 -68 -120 -114q-70 -47 -186 -47h-331zM1043 401h178q123 0 181 86q26 39 31 78q5 30 5 181q0 147 -5 181q-10 53 -36 91q-65 81 -176 81h-178v-698z" />
<glyph unicode="A" horiz-adv-x="1057" d="M86 83q0 9 6 31l242 1286q7 38 39 61q29 19 56 19h233q32 0 53 -11q22 -14 31 -47l256 -1308q5 -19 5 -31q0 -64 -66 -64h-106q-52 0 -56 34l-39 217q-12 42 -44 42h-326q-16 0 -25 -9q-10 -13 -14 -33l-42 -217q0 -15 -16 -25q-17 -9 -31 -9h-100q-17 0 -36 14 q-20 12 -20 50zM384 545q0 -16 11 -27q10 -12 28 -12h223q41 0 41 48l-119 662q-9 31 -31 31q-23 0 -31 -31l-122 -662v-2v-1v-4v-2z" />
<glyph unicode="B" d="M83 61v1380q0 14 14 28q11 11 28 11h429q177 0 281 -83q106 -87 106 -259q0 -100 -37 -172q-21 -36 -50 -70t-58 -67l-3 -3q-9 -11 0 -16l3 -3q12 -9 34.5 -24.5t46.5 -33.5q55 -55 83 -103q28 -56 33 -73q17 -47 17 -108q0 -209 -120 -329q-120 -117 -336 -117h-429 q-16 0 -28 12q-14 14 -14 30zM317 292q0 -9 11 -28q19 -11 28 -11h206q96 0 156 64q58 58 58 156q0 108 -58 178q-59 70 -161 70h-198q-20 0 -31 -14q-11 -20 -11 -31v-384zM317 929q0 -13 11 -30q11 -11 28 -11h148q203 0 203 214q0 88 -61 142q-62 53 -151 53h-136 q-42 0 -42 -42v-326z" />
<glyph unicode="C" d="M83 470v763q0 111 73 181q75 66 178 66h495q51 0 89 -33q34 -37 34 -95l-34 -272q-5 -34 -30 -34h-131q-39 0 -39 42v170q0 12 -14 28q-11 11 -31 11h-258q-41 0 -70 -28q-28 -26 -28 -70v-695q0 -120 53 -187q54 -64 175 -64q107 0 170 67q61 65 61 170q0 36 42 36h148 q26 0 36 -17q8 -18 8 -42q0 -210 -125 -331q-126 -117 -340 -117q-245 0 -353 117q-109 118 -109 334z" />
<glyph unicode="D" d="M63 61v145q0 9 12 19q14 10 36 17q30 11 39 20q11 6 11 22v954q0 14 -11 25q-7 4 -17 8.5t-22 11.5q-20 5 -36 16q-12 6 -12 20v122q0 12 12 28q9 11 27 11h560q149 0 236 -100q92 -105 92 -253v-746q0 -162 -106 -261q-109 -101 -267 -101h-512q-16 0 -30 14 q-12 18 -12 28zM395 295q0 -42 41 -42h176q61 0 103 34q41 37 41 97v737q0 66 -39 123q-40 53 -105 53h-176q-41 0 -41 -42v-960z" />
<glyph unicode="E" d="M103 61v1380q0 39 42 39h782q20 0 31 -11q14 -14 14 -28v-105q0 -11 -11 -28q-11 -11 -31 -11h-551q-42 0 -42 -42v-248q0 -13 11 -30q11 -11 31 -11h376q16 0 30 -14q11 -17 11 -31v-100q0 -42 -41 -42h-376q-42 0 -42 -39v-442q0 -14 11 -31q15 -14 31 -14h612 q17 0 28 -11q11 -15 11 -31v-150q0 -16 -11 -30q-11 -12 -28 -12h-846q-42 0 -42 42z" />
<glyph unicode="F" d="M83 61v1236q0 74 56 130q55 53 178 53h649q20 0 30 -11q14 -13 14 -28v-105q0 -14 -11 -28q-10 -11 -28 -11h-556q-45 0 -70 -34q-28 -33 -28 -80v-379q0 -13 11 -30q14 -14 28 -14h439q19 0 30 -11q11 -17 11 -31v-131q0 -42 -41 -42h-436q-42 0 -42 -41v-443 q0 -42 -42 -42h-150q-42 0 -42 42z" />
<glyph unicode="G" d="M83 367v882q0 101 70 167q66 64 164 64h423q91 0 150 -47q62 -53 62 -136v-114q0 -14 -11 -31q-13 -11 -31 -11h-153q-17 0 -28 11t-11 31v72q0 15 -14 31q-18 11 -31 11h-228q-87 0 -111 -45q-8 -8 -14 -36q0 -9 -1.5 -23t-1.5 -30v-782q0 -68 70 -108q73 -39 139 -39 q30 0 75 8q49 10 84 28q40 17 64 44q27 28 27 67v203q0 13 -11 28q-10 11 -30 11h-201q-16 0 -30 14q-11 16 -11 31v103q0 11 11 28q17 11 30 11h434q42 0 42 -42v-707q0 -16 -11 -30q-11 -12 -28 -12h-94q-21 0 -34 23q-23 28 -39 58q-28 56 -42 56q-7 0 -11 -9 q-62 -75 -139 -111q-80 -36 -181 -36q-157 0 -253 106q-95 104 -95 261z" />
<glyph unicode="H" d="M83 58v1378q0 14 12 30q9 14 27 14h156q18 0 28 -11q11 -11 11 -28v-462q0 -13 11 -30q15 -14 31 -14h376q12 0 30 11q11 14 11 28v467q0 17 11 28t31 11h150q21 0 31 -11q11 -15 11 -28v-1377q0 -15 -11 -31q-14 -14 -31 -14h-150q-16 0 -31 14q-11 12 -11 28v598 q0 16 -11 31q-11 11 -28 11h-378q-42 0 -42 -39v-604q0 -16 -11 -27q-11 -12 -31 -12h-150q-20 0 -30 12q-12 16 -12 27z" />
<glyph unicode="I" horiz-adv-x="937" d="M200 61v159q0 27 34 30l183 20q17 0 17 14v968q0 11 -11 20q-23 14 -39 19q-13 6 -21.5 11.5t-14.5 8.5q-11 9 -11 19v111q0 15 14 28q9 11 27 11h334q21 0 31 -11q14 -14 14 -28v-111q0 -8 -11 -19q-7 -3 -15.5 -8.5t-20.5 -11.5q-6 -2 -37 -19q-14 -8 -14 -20v-968 q0 -14 14 -14l187 -17q33 -5 33 -33v-159q0 -16 -11 -30q-11 -12 -28 -12h-612q-42 0 -42 42z" />
<glyph unicode="J" d="M63 381v98q0 22 9 36q6 11 36 11h147q22 0 31 -14q11 -16 11 -33v-98q0 -128 123 -128h211q61 0 92 31q33 33 33 97v874q0 42 -41 42h-298q-20 0 -31 11q-11 17 -11 28v105q0 14 14 28q9 11 31 11h528q42 0 42 -39v-1060q0 -167 -81 -264q-80 -98 -233 -98h-301 q-156 0 -234 95q-78 91 -78 267z" />
<glyph unicode="K" d="M83 58v1378q0 14 12 30q9 14 27 14h137q17 0 28 -11t11 -28v-573q0 -16 22 -19q14 0 31 19l445 579q0 2 1.5 2.5t1.5 3.5q22 27 47 27h106q58 0 58 -30q0 -21 -19 -48l-409 -553q-6 -6 -6 -14q0 -1 6 -11v-3.5v-2.5l409 -718q19 -26 19 -50q0 -31 -58 -31h-148 q-31 0 -55 39l-309 526q-10 14 -25 14q-11 0 -20 -14l-78 -105q-19 -30 -19 -62v-359q0 -17 -14 -27q-12 -12 -28 -12h-131q-20 0 -30 12q-12 16 -12 27z" />
<glyph unicode="L" d="M103 58v1378q0 14 12 30q9 14 27 14h156q18 0 28 -11q11 -11 11 -28v-1143q0 -14 11 -31q15 -14 31 -14h376q12 0 30 11q11 16 11 28v148q0 16 11 25q15 14 31 14h150q17 0 31 -14q11 -11 11 -25v-304q0 -50 -33 -83q-39 -34 -84 -34h-768q-20 0 -30 12q-12 16 -12 27z " />
<glyph unicode="M" d="M83 58v1378q0 14 12 30q9 14 27 14h126q35 0 53 -33l222 -523q4 -14 22 -14q21 0 25 14l223 523q16 33 53 33h125q18 0 28 -14q11 -15 11 -30v-1378q0 -13 -11 -27q-11 -12 -28 -12h-139q-19 0 -31 12q-14 14 -14 27v909q0 7 -13 11q-12 0 -20 -11l-161 -339 q-9 -28 -48 -28q-33 0 -44 28l-162 339q-7 11 -19 11q-14 0 -14 -11v-909q0 -15 -14 -27q-11 -12 -30 -12h-137q-20 0 -30 12q-12 16 -12 27z" />
<glyph unicode="N" d="M83 58v1378q0 14 12 30q9 14 27 14h137q17 0 28 -11t11 -28q0 -8 3 -16q0 -11 2 -17l448 -790q9 -14 25 -14q20 0 20 14v823q0 17 11 28q9 11 28 11h133q21 0 31 -14q11 -15 11 -30v-1378q0 -13 -11 -27q-11 -12 -28 -12h-136q-18 0 -28 12q-11 11 -11 30q0 9 -3 14 q0 14 -3 17l-448 790q-9 14 -22 14q-22 0 -22 -14v-824q0 -16 -11 -27q-12 -12 -31 -12h-131q-20 0 -30 12q-12 16 -12 27z" />
<glyph unicode="O" d="M83 679q0 136 31 287q14 82 50 180q35 94 86 165q51 75 126 122q71 47 167 47q95 0 169 -44q79 -52 131 -125q54 -80 86 -165q33 -90 50 -180q31 -143 31 -287t-14 -262q-17 -121 -61 -211q-47 -97 -142 -150q-97 -56 -250 -56q-152 0 -248 56q-95 57 -139 153 q-46 88 -59 206q-14 131 -14 264zM317 671q0 -53 1.5 -96t4.5 -80q8 -76 28 -130q26 -64 69 -95q48 -36 123 -36q77 0 128 36q45 34 72 100q17 48 28 131q5 78 5 170q0 83 -8 169q-8 84 -31 195q-25 104 -72 167q-49 70 -122 70q-72 0 -120 -70q-43 -61 -70 -164 q-25 -118 -27 -195q-9 -92 -9 -172z" />
<glyph unicode="P" d="M83 1336v105q0 14 14 28q11 11 31 11h506q92 0 156 -36q70 -37 120 -100q49 -64 75 -142q25 -78 25 -164q0 -251 -106 -381q-104 -131 -350 -131h-117q-42 0 -42 -42v-426q0 -16 -11 -27q-11 -12 -31 -12h-150q-20 0 -30 12q-12 16 -12 27v1197q0 42 -36 42h-3 q-39 0 -39 39zM395 754q0 -12 11 -31q12 -11 31 -11h114q53 0 95 28q41 26 72 73q27 43 44 97q14 51 14 100q0 46 -11 109q-12 49 -39 89q-27 43 -69 64q-44 25 -106 25h-111q-14 0 -31 -11q-14 -16 -14 -31v-501z" />
<glyph unicode="Q" d="M83 445v690q0 91 39 162q36 63 106 108q62 37 145 59q81 16 170 16q90 0 172 -16q82 -17 150 -59q61 -39 106 -108q39 -71 39 -162v-448q0 -33 -2 -62t-3 -52q-11 -55 -20 -83q-9 -19 -18 -39.5t-21 -41.5q-13 -19 -29.5 -42t-34.5 -50l-4.5 -4.5l-3.5 -3.5 q-14 -18 -14 -28q0 -8 3 -11q0 -5 8 -17l122 -153l3 -3q14 -22 14 -36q-5 -42 -56 -42h-495q-79 0 -145 37q-74 39 -119 97q-51 59 -81 139q-31 81 -31 153zM317 445q0 -71 31 -131q28 -61 92 -61h142q20 0 25 25q0 15 -6 25l-153 220q-11 11 -11 31q0 18 17 30q14 11 39 11 h89q19 0 30 -8q13 -8 31 -33l89 -123q14 -14 25 -14q19 0 19 34v684q0 75 -75 117q-73 45 -153 45q-81 0 -153 -45q-78 -42 -78 -117v-690z" />
<glyph unicode="R" d="M83 58v1378q0 14 12 30q9 14 27 14h710q57 0 86 -33q34 -37 34 -95v-361q0 -58 -53 -112q-53 -44 -153 -105q-81 -46 -100 -62q-12 -10 -12 -25q0 -18 17 -39l342 -548l1 -2q0 -2 5 -3q11 -26 11 -34q-5 -42 -56 -42h-150q-6 0 -22 9q-17 7 -31 33l-364 590 q-11 25 -11 42v142q0 47 50 47h175q41 0 70 36q27 38 27 73v264q0 14 -11 31q-18 11 -28 11h-300q-16 0 -31 -14q-11 -20 -11 -31v-1194q0 -16 -11 -27q-11 -12 -31 -12h-150q-20 0 -30 12q-12 16 -12 27z" />
<glyph unicode="S" d="M83 376q0 8 12 30q12 14 27 14h148q17 0 28 -11q6 -11 11 -31q4 -50 25 -77q24 -33 56 -48q35 -18 72 -22q25 -6 81 -6q61 0 86 3q48 10 72 20q38 19 53 44q22 31 22 75q0 71 -64 131q-62 58 -194 142q-105 63 -148 95q-61 46 -111 97q-57 59 -84 125q-33 67 -33 153 q0 96 33 167q36 70 95 117q62 45 142 67q71 19 172 19q90 0 159 -16q80 -19 128 -56q56 -37 89 -103q31 -72 31 -161q0 -15 -12 -31q-14 -14 -30 -14h-131q-16 0 -31 14q-11 11 -11 28q0 82 -53 120q-54 36 -133 36q-78 0 -148 -39q-66 -42 -66 -117q0 -77 64 -131 q61 -59 194 -142q44 -30 81 -54.5t67 -45.5q63 -46 111 -97q57 -63 84 -126q33 -71 33 -158q0 -89 -36 -170q-38 -71 -103 -122q-71 -49 -150 -73q-88 -22 -178 -22q-109 0 -190 17q-80 11 -142 55q-60 36 -94 114q-34 74 -34 190z" />
<glyph unicode="T" d="M83 1288v153q0 39 42 39h841q20 0 30 -11q14 -13 14 -28v-155q0 -16 -11 -25q-13 -14 -31 -14h-278q-42 0 -42 -39v-1147q0 -21 -11 -30q-11 -12 -28 -12h-153q-41 0 -41 42v1147q0 16 -14 27q-12 12 -31 12h-245q-42 0 -42 41z" />
<glyph unicode="U" horiz-adv-x="1048" d="M95 423v1013q0 20 11 30q9 14 28 14h155q18 0 25 -11q14 -13 14 -28v-1010q0 -85 53 -133q50 -53 134 -53q115 0 181 81q69 76 69 194v921q0 14 14 28q9 11 31 11h150q17 0 28 -11t11 -28v-1377q0 -19 -11 -31q-16 -14 -28 -14h-134q-19 0 -27 14q-14 14 -14 28v84 q0 11 -11 11t-20 -9q-73 -68 -153 -108q-88 -39 -170 -39q-89 0 -156 33q-59 30 -105 95q-39 60 -59 134q-16 72 -16 161z" />
<glyph unicode="V" d="M83 1416v2.5v3.5v4v1q0 24 12 39q5 14 27 14h140q23 0 30 -8t11 -25l212 -1116q4 -28 30 -28q20 0 28 28l242 1116q3 12 14 25q8 8 22 8h117q23 0 34 -14q8 -13 8 -30v-5v-4q0 -4 -1.5 -6.5t-1.5 -4.5l-297 -1271q-20 -58 -48 -89q-33 -37 -83 -37h-131q-51 0 -83 37 q-36 33 -45 89z" />
<glyph unicode="W" horiz-adv-x="1048" d="M95 1416q0 29 5 48q8 16 31 16h158q37 0 37 -39l50 -865q0 -11 11 -14q8 -5 22 -5q11 0 20 5q11 6 11 14l53 292q0 18 11 22q12 9 33 9h42q26 0 30 -31l39 -292q5 -11 14 -14q6 -5 20 -5t22 5q11 5 11 14l109 871q0 15 11 25q6 8 22 8h103q17 0 31 -16q8 -23 8 -48 l-156 -1363q-5 -34 -36 -34h-89q-30 0 -39 34l-84 314q-12 34 -47 34q-39 0 -50 -34l-92 -314q-7 -19 -11 -22q-7 -12 -25 -12h-106q-35 0 -39 34z" />
<glyph unicode="X" horiz-adv-x="1063" d="M81 53q0 7 5 17l301 676q8 12 8 30q0 11 -8 34l-253 617q-3 9 -3 20q0 23 14 28q11 5 25 5h131q40 0 52 -33l184 -412q10 -14 22 -14q21 0 25 14l201 412q2 8 16 22q14 11 34 11h119q39 0 39 -33q0 -17 -8 -31l-267 -592q-6 -18 -6 -34q0 -14 6 -30l284 -668 q11 -31 11 -39q0 -34 -36 -34h-159q-15 0 -31 12q-18 7 -22 30l-203 498q-4 11 -19 11q-20 0 -23 -11l-231 -506q-3 -8 -22 -22q-15 -12 -33 -12h-106q-47 0 -47 34z" />
<glyph unicode="Y" horiz-adv-x="1057" d="M86 1441q0 17 11 28q7 11 31 11h122q26 0 45 -19q21 -18 31 -45l211 -679q8 -19 25 -19q15 0 22 19l226 679q6 26 28 48q16 16 50 16h78q24 0 30 -14q11 -10 11 -30v-5.5v-5.5t-1 -5t-1 -4q-226 -719 -248 -762l-78 -153q-6 -16 -6 -34v-414q0 -34 -33 -34h-167 q-33 0 -33 34v414q0 17 -9 34l-86 153q-17 31 -256 762q-3 9 -3 25z" />
<glyph unicode="Z" d="M83 53v217q0 11 3 17q12 20 6 14l615 962q5 10 5 14q0 20 -19 20h-576q-34 0 -34 30v120q0 33 31 33h846q31 0 31 -33v-150q0 -5 -1.5 -9t-1.5 -8q-5 -13 -6 -14l-617 -979q-3 -6 -3 -14q0 -20 19 -20h596q33 0 33 -30v-173q0 -31 -33 -31h-863q-31 0 -31 34z" />
<glyph unicode="&#xad;" horiz-adv-x="1095" d="M50 735v120q0 39 42 39h907q14 0 31 -11q13 -15 13 -28v-123q0 -14 -13 -28q-14 -11 -28 -11h-409t-45.5 0t-46 0h-409.5q-42 0 -42 42z" />
<glyph unicode="&#xc4;" d="M83 1361q0 48 39 83q43 34 98 34h86q55 0 97 -34q39 -33 39 -83q0 -51 -39 -84q-41 -33 -97 -33h-86q-56 0 -98 33q-39 34 -39 84zM89 67v3.5v4.5v8.5v5.5l245 1030q7 33 42 50q27 16 53 16h230q33 0 56 -8q22 -8 31 -42l256 -1046q3 -8 3 -22q0 -50 -64 -50h-106 q-48 0 -56 25l-39 175q-5 33 -42 33h-325q-20 0 -28 -8q-10 -8 -14 -25l-42 -175q0 -12 -16 -20q-11 -5 -34 -5h-97q-22 0 -36 8q-17 12 -17 42zM384 445q0 -30 42 -30h220q41 0 41 39l-117 520q-8 25 -33 25q-27 0 -31 -25l-122 -520v-3.5v-2.5v-3zM651 1361q0 50 42 83 q38 34 94 34h87q55 0 94 -34q42 -33 42 -83q0 -51 -42 -84q-38 -33 -94 -33h-87q-57 0 -94 33q-42 33 -42 84z" />
<glyph unicode="&#xd6;" d="M83 543q0 107 31 231q17 74 50 144q34 75 86 131q50 62 126 100q81 36 167 36q87 0 169 -36q76 -36 131 -100q54 -63 86 -131q31 -64 50 -144q31 -118 31 -231q0 -115 -14 -209q-18 -97 -61 -167q-45 -77 -142 -122q-93 -45 -250 -45q-156 0 -248 45q-96 44 -139 122 q-45 72 -59 164q-14 106 -14 212zM83 1361q0 48 39 83q43 34 98 34h86q55 0 97 -34q39 -33 39 -83q0 -51 -39 -84q-41 -33 -97 -33h-86q-56 0 -98 33q-39 34 -39 84zM312 555q-8 -153 39 -257q27 -53 69 -75q47 -28 123 -28q84 0 128 28q43 25 72 80q45 100 35 253.5 t-41 256.5q-24 73 -72 122q-47 50 -122 50q-74 0 -120 -50q-45 -47 -70 -120q-33 -107 -41 -260zM651 1361q0 50 42 83q38 34 94 34h87q55 0 94 -34q42 -33 42 -83q0 -51 -42 -84q-38 -33 -94 -33h-87q-57 0 -94 33q-42 33 -42 84z" />
<glyph unicode="&#xdc;" horiz-adv-x="1048" d="M95 339v810q0 15 11 25q9 11 28 11h155q18 0 25 -11q14 -8 14 -22v-787q0 -68 53 -109q51 -42 134 -42q110 0 181 64q69 66 69 159v718q0 11 14 22q10 8 31 8h150q39 0 39 -30v-1102q0 -17 -11 -28q-12 -8 -28 -8h-134q-21 0 -27 8q-14 9 -14 25v64q0 11 -14 11 q-8 0 -17 -8q-70 -53 -156 -84q-80 -33 -167 -33q-93 0 -156 28q-62 23 -105 75q-39 47 -59 108q-16 56 -16 128zM95 1361q0 52 39 83q41 34 97 34h83q59 0 98 -34q42 -33 42 -83q0 -51 -42 -84q-38 -33 -98 -33h-83q-57 0 -97 33q-39 30 -39 84zM640 1361q0 50 42 83 q43 34 97 34h84q53 0 97 -34q39 -31 39 -83q0 -54 -39 -84q-42 -33 -97 -33h-84q-55 0 -97 33t-42 84z" />
<glyph unicode="&#x2000;" horiz-adv-x="791" />
<glyph unicode="&#x2001;" horiz-adv-x="1583" />
<glyph unicode="&#x2002;" horiz-adv-x="791" />
<glyph unicode="&#x2003;" horiz-adv-x="1583" />
<glyph unicode="&#x2004;" horiz-adv-x="527" />
<glyph unicode="&#x2005;" horiz-adv-x="395" />
<glyph unicode="&#x2006;" horiz-adv-x="263" />
<glyph unicode="&#x2007;" horiz-adv-x="263" />
<glyph unicode="&#x2008;" horiz-adv-x="197" />
<glyph unicode="&#x2009;" horiz-adv-x="316" />
<glyph unicode="&#x200a;" horiz-adv-x="87" />
<glyph unicode="&#x2010;" horiz-adv-x="1095" d="M50 735v120q0 39 42 39h907q14 0 31 -11q13 -15 13 -28v-123q0 -14 -13 -28q-14 -11 -28 -11h-409t-45.5 0t-46 0h-409.5q-42 0 -42 42z" />
<glyph unicode="&#x2011;" horiz-adv-x="1095" d="M50 735v120q0 39 42 39h907q14 0 31 -11q13 -15 13 -28v-123q0 -14 -13 -28q-14 -11 -28 -11h-409t-45.5 0t-46 0h-409.5q-42 0 -42 42z" />
<glyph unicode="&#x2012;" horiz-adv-x="1095" d="M50 735v120q0 39 42 39h907q14 0 31 -11q13 -15 13 -28v-123q0 -14 -13 -28q-14 -11 -28 -11h-409t-45.5 0t-46 0h-409.5q-42 0 -42 42z" />
<glyph unicode="&#x2013;" horiz-adv-x="1126" d="M50 735v120q0 39 43 39h936q14 0 32 -11q13 -15 13 -28v-123q0 -14 -13 -28q-15 -11 -29 -11h-422t-47 0t-47.5 0h-422.5q-43 0 -43 42z" />
<glyph unicode="&#x2014;" horiz-adv-x="2150" d="M50 735v120q0 39 87 39h1870q29 0 64 -11q27 -15 27 -28v-123q0 -14 -27 -28q-29 -11 -58 -11h-843t-93.5 0t-95 0h-844.5q-87 0 -87 42z" />
<glyph unicode="&#x202f;" horiz-adv-x="316" />
<glyph unicode="&#x205f;" horiz-adv-x="395" />
<glyph unicode="&#x25fc;" horiz-adv-x="1480" d="M0 0v1480h1480v-1480h-1480z" />
</font>
</defs>
</svg>
